<svg width="1100" height="702" viewBox="0 0 1100 702" fill="none" xmlns="http://www.w3.org/2000/svg" role="img" aria-label="Tech stack grouped by category">
  <title>Tech Toolbox</title>
  <style>
    text { font-family: 'Segoe UI', -apple-system, BlinkMacSystemFont, 'Helvetica Neue', Arial, sans-serif; }
    @keyframes fadeIn { from { opacity: 0; } to { opacity: 1; } }
    .cat { animation: fadeIn .9s ease-out both; }
    .c1{animation-delay:.05s} .c2{animation-delay:.15s} .c3{animation-delay:.25s}
    .c4{animation-delay:.35s} .c5{animation-delay:.45s} .c6{animation-delay:.55s}
    @media (prefers-reduced-motion: reduce) { * { animation: none !important; } }
  </style>
  <g class="cat c1">
    <text x="550" y="42" text-anchor="middle" font-size="15" font-weight="700" letter-spacing="3" fill="#7dd3fc">LANGUAGES</text>
    <rect x="406" y="37" width="60" height="2" rx="1" fill="#22d3ee" opacity="0.45"/>
    <rect x="634" y="37" width="60" height="2" rx="1" fill="#22d3ee" opacity="0.45"/>
    <rect x="190" y="54" width="92" height="40" rx="20" fill="#22d3ee" fill-opacity="0.07" stroke="#22d3ee" stroke-opacity="0.5" stroke-width="1.2"/>
    <text x="236" y="80" text-anchor="middle" font-size="15" font-weight="600" letter-spacing="0.3" fill="#7dd3fc">Python</text>
    <rect x="294" y="54" width="123" height="40" rx="20" fill="#22d3ee" fill-opacity="0.07" stroke="#22d3ee" stroke-opacity="0.5" stroke-width="1.2"/>
    <text x="356" y="80" text-anchor="middle" font-size="15" font-weight="600" letter-spacing="0.3" fill="#7dd3fc">TypeScript</text>
    <rect x="429" y="54" width="123" height="40" rx="20" fill="#22d3ee" fill-opacity="0.07" stroke="#22d3ee" stroke-opacity="0.5" stroke-width="1.2"/>
    <text x="490" y="80" text-anchor="middle" font-size="15" font-weight="600" letter-spacing="0.3" fill="#7dd3fc">JavaScript</text>
    <rect x="564" y="54" width="78" height="40" rx="20" fill="#22d3ee" fill-opacity="0.07" stroke="#22d3ee" stroke-opacity="0.5" stroke-width="1.2"/>
    <text x="603" y="80" text-anchor="middle" font-size="15" font-weight="600" letter-spacing="0.3" fill="#7dd3fc">Java</text>
    <rect x="654" y="54" width="70" height="40" rx="20" fill="#22d3ee" fill-opacity="0.07" stroke="#22d3ee" stroke-opacity="0.5" stroke-width="1.2"/>
    <text x="689" y="80" text-anchor="middle" font-size="15" font-weight="600" letter-spacing="0.3" fill="#7dd3fc">C++</text>
    <rect x="736" y="54" width="88" height="40" rx="20" fill="#22d3ee" fill-opacity="0.07" stroke="#22d3ee" stroke-opacity="0.5" stroke-width="1.2"/>
    <text x="780" y="80" text-anchor="middle" font-size="15" font-weight="600" letter-spacing="0.3" fill="#7dd3fc">HTML</text>
    <rect x="836" y="54" width="75" height="40" rx="20" fill="#22d3ee" fill-opacity="0.07" stroke="#22d3ee" stroke-opacity="0.5" stroke-width="1.2"/>
    <text x="874" y="80" text-anchor="middle" font-size="15" font-weight="600" letter-spacing="0.3" fill="#7dd3fc">CSS</text>
  </g>
  <g class="cat c2">
    <text x="550" y="138" text-anchor="middle" font-size="15" font-weight="700" letter-spacing="3" fill="#c4b5fd">AI / ML &amp; AGENTS</text>
    <rect x="372" y="133" width="60" height="2" rx="1" fill="#8b5cf6" opacity="0.45"/>
    <rect x="668" y="133" width="60" height="2" rx="1" fill="#8b5cf6" opacity="0.45"/>
    <rect x="93" y="150" width="105" height="40" rx="20" fill="#8b5cf6" fill-opacity="0.07" stroke="#8b5cf6" stroke-opacity="0.5" stroke-width="1.2"/>
    <text x="146" y="176" text-anchor="middle" font-size="15" font-weight="600" letter-spacing="0.3" fill="#c4b5fd">PyTorch</text>
    <rect x="210" y="150" width="131" height="40" rx="20" fill="#8b5cf6" fill-opacity="0.07" stroke="#8b5cf6" stroke-opacity="0.5" stroke-width="1.2"/>
    <text x="276" y="176" text-anchor="middle" font-size="15" font-weight="600" letter-spacing="0.3" fill="#c4b5fd">TensorFlow</text>
    <rect x="353" y="150" width="129" height="40" rx="20" fill="#8b5cf6" fill-opacity="0.07" stroke="#8b5cf6" stroke-opacity="0.5" stroke-width="1.2"/>
    <text x="418" y="176" text-anchor="middle" font-size="15" font-weight="600" letter-spacing="0.3" fill="#c4b5fd">scikit-learn</text>
    <rect x="494" y="150" width="99" height="40" rx="20" fill="#8b5cf6" fill-opacity="0.07" stroke="#8b5cf6" stroke-opacity="0.5" stroke-width="1.2"/>
    <text x="544" y="176" text-anchor="middle" font-size="15" font-weight="600" letter-spacing="0.3" fill="#c4b5fd">OpenCV</text>
    <rect x="605" y="150" width="118" height="40" rx="20" fill="#8b5cf6" fill-opacity="0.07" stroke="#8b5cf6" stroke-opacity="0.5" stroke-width="1.2"/>
    <text x="664" y="176" text-anchor="middle" font-size="15" font-weight="600" letter-spacing="0.3" fill="#c4b5fd">LangChain</text>
    <rect x="735" y="150" width="121" height="40" rx="20" fill="#8b5cf6" fill-opacity="0.07" stroke="#8b5cf6" stroke-opacity="0.5" stroke-width="1.2"/>
    <text x="796" y="176" text-anchor="middle" font-size="15" font-weight="600" letter-spacing="0.3" fill="#c4b5fd">LangGraph</text>
    <rect x="868" y="150" width="139" height="40" rx="20" fill="#8b5cf6" fill-opacity="0.07" stroke="#8b5cf6" stroke-opacity="0.5" stroke-width="1.2"/>
    <text x="938" y="176" text-anchor="middle" font-size="15" font-weight="600" letter-spacing="0.3" fill="#c4b5fd">Hugging Face</text>
    <rect x="210" y="200" width="78" height="40" rx="20" fill="#8b5cf6" fill-opacity="0.07" stroke="#8b5cf6" stroke-opacity="0.5" stroke-width="1.2"/>
    <text x="249" y="226" text-anchor="middle" font-size="15" font-weight="600" letter-spacing="0.3" fill="#c4b5fd">Groq</text>
    <rect x="300" y="200" width="129" height="40" rx="20" fill="#8b5cf6" fill-opacity="0.07" stroke="#8b5cf6" stroke-opacity="0.5" stroke-width="1.2"/>
    <text x="364" y="226" text-anchor="middle" font-size="15" font-weight="600" letter-spacing="0.3" fill="#c4b5fd">Gemini API</text>
    <rect x="441" y="200" width="104" height="40" rx="20" fill="#8b5cf6" fill-opacity="0.07" stroke="#8b5cf6" stroke-opacity="0.5" stroke-width="1.2"/>
    <text x="493" y="226" text-anchor="middle" font-size="15" font-weight="600" letter-spacing="0.3" fill="#c4b5fd">XGBoost</text>
    <rect x="557" y="200" width="120" height="40" rx="20" fill="#8b5cf6" fill-opacity="0.07" stroke="#8b5cf6" stroke-opacity="0.5" stroke-width="1.2"/>
    <text x="617" y="226" text-anchor="middle" font-size="15" font-weight="600" letter-spacing="0.3" fill="#c4b5fd">ChromaDB</text>
    <rect x="689" y="200" width="95" height="40" rx="20" fill="#8b5cf6" fill-opacity="0.07" stroke="#8b5cf6" stroke-opacity="0.5" stroke-width="1.2"/>
    <text x="736" y="226" text-anchor="middle" font-size="15" font-weight="600" letter-spacing="0.3" fill="#c4b5fd">Pandas</text>
    <rect x="796" y="200" width="94" height="40" rx="20" fill="#8b5cf6" fill-opacity="0.07" stroke="#8b5cf6" stroke-opacity="0.5" stroke-width="1.2"/>
    <text x="843" y="226" text-anchor="middle" font-size="15" font-weight="600" letter-spacing="0.3" fill="#c4b5fd">NumPy</text>
  </g>
  <g class="cat c3">
    <text x="550" y="284" text-anchor="middle" font-size="15" font-weight="700" letter-spacing="3" fill="#93c5fd">FRONTEND &amp; MOBILE</text>
    <rect x="359" y="279" width="60" height="2" rx="1" fill="#60a5fa" opacity="0.45"/>
    <rect x="681" y="279" width="60" height="2" rx="1" fill="#60a5fa" opacity="0.45"/>
    <rect x="172" y="296" width="84" height="40" rx="20" fill="#60a5fa" fill-opacity="0.07" stroke="#60a5fa" stroke-opacity="0.5" stroke-width="1.2"/>
    <text x="214" y="322" text-anchor="middle" font-size="15" font-weight="600" letter-spacing="0.3" fill="#93c5fd">React</text>
    <rect x="268" y="296" width="94" height="40" rx="20" fill="#60a5fa" fill-opacity="0.07" stroke="#60a5fa" stroke-opacity="0.5" stroke-width="1.2"/>
    <text x="315" y="322" text-anchor="middle" font-size="15" font-weight="600" letter-spacing="0.3" fill="#93c5fd">Next.js</text>
    <rect x="374" y="296" width="89" height="40" rx="20" fill="#60a5fa" fill-opacity="0.07" stroke="#60a5fa" stroke-opacity="0.5" stroke-width="1.2"/>
    <text x="418" y="322" text-anchor="middle" font-size="15" font-weight="600" letter-spacing="0.3" fill="#93c5fd">Svelte</text>
    <rect x="475" y="296" width="142" height="40" rx="20" fill="#60a5fa" fill-opacity="0.07" stroke="#60a5fa" stroke-opacity="0.5" stroke-width="1.2"/>
    <text x="546" y="322" text-anchor="middle" font-size="15" font-weight="600" letter-spacing="0.3" fill="#93c5fd">Tailwind CSS</text>
    <rect x="629" y="296" width="105" height="40" rx="20" fill="#60a5fa" fill-opacity="0.07" stroke="#60a5fa" stroke-opacity="0.5" stroke-width="1.2"/>
    <text x="682" y="322" text-anchor="middle" font-size="15" font-weight="600" letter-spacing="0.3" fill="#93c5fd">Three.js</text>
    <rect x="746" y="296" width="181" height="40" rx="20" fill="#60a5fa" fill-opacity="0.07" stroke="#60a5fa" stroke-opacity="0.5" stroke-width="1.2"/>
    <text x="836" y="322" text-anchor="middle" font-size="15" font-weight="600" letter-spacing="0.3" fill="#93c5fd">React Native · Expo</text>
  </g>
  <g class="cat c4">
    <text x="550" y="380" text-anchor="middle" font-size="15" font-weight="700" letter-spacing="3" fill="#6ee7b7">BACKEND &amp; DATA</text>
    <rect x="380" y="375" width="60" height="2" rx="1" fill="#34d399" opacity="0.45"/>
    <rect x="660" y="375" width="60" height="2" rx="1" fill="#34d399" opacity="0.45"/>
    <rect x="260" y="392" width="106" height="40" rx="20" fill="#34d399" fill-opacity="0.07" stroke="#34d399" stroke-opacity="0.5" stroke-width="1.2"/>
    <text x="313" y="418" text-anchor="middle" font-size="15" font-weight="600" letter-spacing="0.3" fill="#6ee7b7">FastAPI</text>
    <rect x="378" y="392" width="97" height="40" rx="20" fill="#34d399" fill-opacity="0.07" stroke="#34d399" stroke-opacity="0.5" stroke-width="1.2"/>
    <text x="426" y="418" text-anchor="middle" font-size="15" font-weight="600" letter-spacing="0.3" fill="#6ee7b7">Node.js</text>
    <rect x="487" y="392" width="103" height="40" rx="20" fill="#34d399" fill-opacity="0.07" stroke="#34d399" stroke-opacity="0.5" stroke-width="1.2"/>
    <text x="538" y="418" text-anchor="middle" font-size="15" font-weight="600" letter-spacing="0.3" fill="#6ee7b7">Express</text>
    <rect x="602" y="392" width="130" height="40" rx="20" fill="#34d399" fill-opacity="0.07" stroke="#34d399" stroke-opacity="0.5" stroke-width="1.2"/>
    <text x="667" y="418" text-anchor="middle" font-size="15" font-weight="600" letter-spacing="0.3" fill="#6ee7b7">PostgreSQL</text>
    <rect x="744" y="392" width="96" height="40" rx="20" fill="#34d399" fill-opacity="0.07" stroke="#34d399" stroke-opacity="0.5" stroke-width="1.2"/>
    <text x="792" y="418" text-anchor="middle" font-size="15" font-weight="600" letter-spacing="0.3" fill="#6ee7b7">MySQL</text>
    <rect x="313" y="442" width="111" height="40" rx="20" fill="#34d399" fill-opacity="0.07" stroke="#34d399" stroke-opacity="0.5" stroke-width="1.2"/>
    <text x="368" y="468" text-anchor="middle" font-size="15" font-weight="600" letter-spacing="0.3" fill="#6ee7b7">Supabase</text>
    <rect x="436" y="442" width="128" height="40" rx="20" fill="#34d399" fill-opacity="0.07" stroke="#34d399" stroke-opacity="0.5" stroke-width="1.2"/>
    <text x="500" y="468" text-anchor="middle" font-size="15" font-weight="600" letter-spacing="0.3" fill="#6ee7b7">REST APIs</text>
    <rect x="576" y="442" width="129" height="40" rx="20" fill="#34d399" fill-opacity="0.07" stroke="#34d399" stroke-opacity="0.5" stroke-width="1.2"/>
    <text x="640" y="468" text-anchor="middle" font-size="15" font-weight="600" letter-spacing="0.3" fill="#6ee7b7">WebSockets</text>
    <rect x="717" y="442" width="70" height="40" rx="20" fill="#34d399" fill-opacity="0.07" stroke="#34d399" stroke-opacity="0.5" stroke-width="1.2"/>
    <text x="752" y="468" text-anchor="middle" font-size="15" font-weight="600" letter-spacing="0.3" fill="#6ee7b7">Zod</text>
  </g>
  <g class="cat c5">
    <text x="550" y="526" text-anchor="middle" font-size="15" font-weight="700" letter-spacing="3" fill="#fdba74">CLOUD · DEVOPS · HARDWARE</text>
    <rect x="316" y="521" width="60" height="2" rx="1" fill="#fb923c" opacity="0.45"/>
    <rect x="724" y="521" width="60" height="2" rx="1" fill="#fb923c" opacity="0.45"/>
    <rect x="66" y="538" width="95" height="40" rx="20" fill="#fb923c" fill-opacity="0.07" stroke="#fb923c" stroke-opacity="0.5" stroke-width="1.2"/>
    <text x="114" y="564" text-anchor="middle" font-size="15" font-weight="600" letter-spacing="0.3" fill="#fdba74">Docker</text>
    <rect x="173" y="538" width="92" height="40" rx="20" fill="#fb923c" fill-opacity="0.07" stroke="#fb923c" stroke-opacity="0.5" stroke-width="1.2"/>
    <text x="219" y="564" text-anchor="middle" font-size="15" font-weight="600" letter-spacing="0.3" fill="#fdba74">Vercel</text>
    <rect x="277" y="538" width="64" height="40" rx="20" fill="#fb923c" fill-opacity="0.07" stroke="#fb923c" stroke-opacity="0.5" stroke-width="1.2"/>
    <text x="309" y="564" text-anchor="middle" font-size="15" font-weight="600" letter-spacing="0.3" fill="#fdba74">Git</text>
    <rect x="353" y="538" width="148" height="40" rx="20" fill="#fb923c" fill-opacity="0.07" stroke="#fb923c" stroke-opacity="0.5" stroke-width="1.2"/>
    <text x="427" y="564" text-anchor="middle" font-size="15" font-weight="600" letter-spacing="0.3" fill="#fdba74">GitHub Actions</text>
    <rect x="513" y="538" width="84" height="40" rx="20" fill="#fb923c" fill-opacity="0.07" stroke="#fb923c" stroke-opacity="0.5" stroke-width="1.2"/>
    <text x="555" y="564" text-anchor="middle" font-size="15" font-weight="600" letter-spacing="0.3" fill="#fdba74">Linux</text>
    <rect x="609" y="538" width="139" height="40" rx="20" fill="#fb923c" fill-opacity="0.07" stroke="#fb923c" stroke-opacity="0.5" stroke-width="1.2"/>
    <text x="678" y="564" text-anchor="middle" font-size="15" font-weight="600" letter-spacing="0.3" fill="#fdba74">Raspberry Pi</text>
    <rect x="760" y="538" width="120" height="40" rx="20" fill="#fb923c" fill-opacity="0.07" stroke="#fb923c" stroke-opacity="0.5" stroke-width="1.2"/>
    <text x="820" y="564" text-anchor="middle" font-size="15" font-weight="600" letter-spacing="0.3" fill="#fdba74">HF Spaces</text>
    <rect x="892" y="538" width="142" height="40" rx="20" fill="#fb923c" fill-opacity="0.07" stroke="#fb923c" stroke-opacity="0.5" stroke-width="1.2"/>
    <text x="963" y="564" text-anchor="middle" font-size="15" font-weight="600" letter-spacing="0.3" fill="#fdba74">mTLS · RBAC</text>
  </g>
  <g class="cat c6">
    <text x="550" y="622" text-anchor="middle" font-size="15" font-weight="700" letter-spacing="3" fill="#f9a8d4">TOOLS &amp; DESIGN</text>
    <rect x="380" y="617" width="60" height="2" rx="1" fill="#ec4899" opacity="0.45"/>
    <rect x="660" y="617" width="60" height="2" rx="1" fill="#ec4899" opacity="0.45"/>
    <rect x="324" y="634" width="88" height="40" rx="20" fill="#ec4899" fill-opacity="0.07" stroke="#ec4899" stroke-opacity="0.5" stroke-width="1.2"/>
    <text x="368" y="660" text-anchor="middle" font-size="15" font-weight="600" letter-spacing="0.3" fill="#f9a8d4">Figma</text>
    <rect x="424" y="634" width="103" height="40" rx="20" fill="#ec4899" fill-opacity="0.07" stroke="#ec4899" stroke-opacity="0.5" stroke-width="1.2"/>
    <text x="476" y="660" text-anchor="middle" font-size="15" font-weight="600" letter-spacing="0.3" fill="#f9a8d4">VS Code</text>
    <rect x="539" y="634" width="108" height="40" rx="20" fill="#ec4899" fill-opacity="0.07" stroke="#ec4899" stroke-opacity="0.5" stroke-width="1.2"/>
    <text x="593" y="660" text-anchor="middle" font-size="15" font-weight="600" letter-spacing="0.3" fill="#f9a8d4">MATLAB</text>
    <rect x="659" y="634" width="117" height="40" rx="20" fill="#ec4899" fill-opacity="0.07" stroke="#ec4899" stroke-opacity="0.5" stroke-width="1.2"/>
    <text x="718" y="660" text-anchor="middle" font-size="15" font-weight="600" letter-spacing="0.3" fill="#f9a8d4">Node-RED</text>
  </g>
</svg>
